# xmcd CD database file
#
# Track frame offsets:
#	150
#	16532
#	38420
#	58978
#	83109
#	104347
#	121833
#	148170
#	176267
#
# Disc length: 2705 seconds
#
# Revision: 0
# Processed by: cddbd v1.5.1PL0 Copyright (c) Steve Scherf et al.
# Submitted via: CDex 1.51
#
DISCID=680a8f09
DTITLE=Mary Kadderly - I Go Zoom
DYEAR=1998
DGENRE=Jazz
TTITLE0=I Go Zoom
TTITLE1=Someday Sometime
TTITLE2=Sea of Love
TTITLE3=You Opened Up My Heart
TTITLE4=It's Not Over Yet
TTITLE5=Can You Feel It?
TTITLE6=Love Is Losing
TTITLE7=The Least Like You
TTITLE8=Heading Back to Town
EXTD=YEAR: 1998
EXTT0=
EXTT1=
EXTT2=
EXTT3=
EXTT4=
EXTT5=
EXTT6=
EXTT7=
EXTT8=
PLAYORDER=
